<mxfile host="app.diagrams.net" modified="2023-05-25T00:51:18.759Z" agent="Mozilla/5.0 (Windows NT 10.0; Win64; x64) AppleWebKit/537.36 (KHTML, like Gecko) Chrome/113.0.0.0 Safari/537.36" etag="daczOxD29SKaDtA2IK3i" version="21.3.3" type="github">
  <diagram name="Page-1" id="0IG-OPLD6j06kxd6y5DB">
    <mxGraphModel dx="1750" dy="2052" grid="1" gridSize="10" guides="1" tooltips="1" connect="1" arrows="1" fold="1" page="1" pageScale="1" pageWidth="827" pageHeight="1169" math="0" shadow="0">
      <root>
        <mxCell id="0" />
        <mxCell id="1" parent="0" />
        <mxCell id="JRF7HpJoh09jdQa5sIdF-34" value="" style="rounded=0;whiteSpace=wrap;html=1;fillColor=#b1ddf0;strokeColor=#10739e;" vertex="1" parent="1">
          <mxGeometry y="-40" width="120" height="680" as="geometry" />
        </mxCell>
        <mxCell id="JRF7HpJoh09jdQa5sIdF-36" style="edgeStyle=none;rounded=0;jumpStyle=line;jumpSize=7;orthogonalLoop=1;jettySize=auto;html=1;entryX=0.021;entryY=0.395;entryDx=0;entryDy=0;entryPerimeter=0;targetPerimeterSpacing=0;endArrow=none;endFill=0;" edge="1" parent="1" source="JRF7HpJoh09jdQa5sIdF-42" target="JRF7HpJoh09jdQa5sIdF-50">
          <mxGeometry relative="1" as="geometry" />
        </mxCell>
        <mxCell id="JRF7HpJoh09jdQa5sIdF-37" style="edgeStyle=none;rounded=0;jumpStyle=line;jumpSize=7;orthogonalLoop=1;jettySize=auto;html=1;entryX=0;entryY=0.5;entryDx=0;entryDy=0;targetPerimeterSpacing=0;endArrow=none;endFill=0;" edge="1" parent="1" source="JRF7HpJoh09jdQa5sIdF-42" target="JRF7HpJoh09jdQa5sIdF-51">
          <mxGeometry relative="1" as="geometry" />
        </mxCell>
        <mxCell id="JRF7HpJoh09jdQa5sIdF-38" style="edgeStyle=none;rounded=0;jumpStyle=line;jumpSize=7;orthogonalLoop=1;jettySize=auto;html=1;entryX=0;entryY=0.5;entryDx=0;entryDy=0;targetPerimeterSpacing=0;endArrow=none;endFill=0;" edge="1" parent="1" source="JRF7HpJoh09jdQa5sIdF-42" target="JRF7HpJoh09jdQa5sIdF-52">
          <mxGeometry relative="1" as="geometry" />
        </mxCell>
        <mxCell id="JRF7HpJoh09jdQa5sIdF-39" style="edgeStyle=none;rounded=0;jumpStyle=line;jumpSize=7;orthogonalLoop=1;jettySize=auto;html=1;entryX=0;entryY=0.5;entryDx=0;entryDy=0;targetPerimeterSpacing=0;endArrow=none;endFill=0;" edge="1" parent="1" source="JRF7HpJoh09jdQa5sIdF-42" target="JRF7HpJoh09jdQa5sIdF-53">
          <mxGeometry relative="1" as="geometry" />
        </mxCell>
        <mxCell id="JRF7HpJoh09jdQa5sIdF-40" style="edgeStyle=none;rounded=0;jumpStyle=line;jumpSize=7;orthogonalLoop=1;jettySize=auto;html=1;entryX=0;entryY=0.5;entryDx=0;entryDy=0;targetPerimeterSpacing=0;endArrow=none;endFill=0;" edge="1" parent="1" source="JRF7HpJoh09jdQa5sIdF-42" target="JRF7HpJoh09jdQa5sIdF-54">
          <mxGeometry relative="1" as="geometry" />
        </mxCell>
        <mxCell id="JRF7HpJoh09jdQa5sIdF-41" style="edgeStyle=none;rounded=0;jumpStyle=line;jumpSize=7;orthogonalLoop=1;jettySize=auto;html=1;entryX=0;entryY=0.5;entryDx=0;entryDy=0;targetPerimeterSpacing=0;endArrow=none;endFill=0;" edge="1" parent="1" source="JRF7HpJoh09jdQa5sIdF-42" target="JRF7HpJoh09jdQa5sIdF-55">
          <mxGeometry relative="1" as="geometry" />
        </mxCell>
        <mxCell id="JRF7HpJoh09jdQa5sIdF-42" value="Développeur" style="shape=umlActor;verticalLabelPosition=bottom;verticalAlign=top;html=1;outlineConnect=0;" vertex="1" parent="1">
          <mxGeometry x="45" y="20" width="30" height="60" as="geometry" />
        </mxCell>
        <mxCell id="JRF7HpJoh09jdQa5sIdF-43" value="" style="edgeStyle=orthogonalEdgeStyle;rounded=0;orthogonalLoop=1;jettySize=auto;html=1;jumpStyle=gap;" edge="1" parent="1" source="JRF7HpJoh09jdQa5sIdF-44" target="JRF7HpJoh09jdQa5sIdF-42">
          <mxGeometry relative="1" as="geometry">
            <Array as="points">
              <mxPoint x="60" y="120" />
              <mxPoint x="60" y="120" />
            </Array>
          </mxGeometry>
        </mxCell>
        <mxCell id="JRF7HpJoh09jdQa5sIdF-44" value="Chef de projet" style="shape=umlActor;verticalLabelPosition=bottom;verticalAlign=top;html=1;outlineConnect=0;" vertex="1" parent="1">
          <mxGeometry x="45" y="200" width="30" height="60" as="geometry" />
        </mxCell>
        <mxCell id="JRF7HpJoh09jdQa5sIdF-45" style="rounded=0;jumpStyle=line;orthogonalLoop=1;jettySize=auto;html=1;targetPerimeterSpacing=0;jumpSize=7;entryX=0;entryY=0.5;entryDx=0;entryDy=0;endArrow=none;endFill=0;" edge="1" parent="1" source="JRF7HpJoh09jdQa5sIdF-47" target="JRF7HpJoh09jdQa5sIdF-57">
          <mxGeometry relative="1" as="geometry" />
        </mxCell>
        <mxCell id="JRF7HpJoh09jdQa5sIdF-46" style="edgeStyle=none;rounded=0;jumpStyle=line;jumpSize=7;orthogonalLoop=1;jettySize=auto;html=1;entryX=0;entryY=0.5;entryDx=0;entryDy=0;targetPerimeterSpacing=0;endArrow=none;endFill=0;" edge="1" parent="1" source="JRF7HpJoh09jdQa5sIdF-47" target="JRF7HpJoh09jdQa5sIdF-58">
          <mxGeometry relative="1" as="geometry" />
        </mxCell>
        <mxCell id="JRF7HpJoh09jdQa5sIdF-47" value="Administrateur" style="shape=umlActor;verticalLabelPosition=bottom;verticalAlign=top;html=1;outlineConnect=0;" vertex="1" parent="1">
          <mxGeometry x="45" y="320" width="30" height="60" as="geometry" />
        </mxCell>
        <mxCell id="JRF7HpJoh09jdQa5sIdF-68" style="rounded=0;orthogonalLoop=1;jettySize=auto;html=1;endArrow=none;endFill=0;" edge="1" parent="1" source="JRF7HpJoh09jdQa5sIdF-49" target="JRF7HpJoh09jdQa5sIdF-56">
          <mxGeometry relative="1" as="geometry" />
        </mxCell>
        <mxCell id="JRF7HpJoh09jdQa5sIdF-49" value="&#xa;Client&#xa;&#xa;" style="shape=umlActor;verticalLabelPosition=bottom;verticalAlign=top;html=1;outlineConnect=0;" vertex="1" parent="1">
          <mxGeometry x="45" y="500" width="30" height="60" as="geometry" />
        </mxCell>
        <mxCell id="JRF7HpJoh09jdQa5sIdF-70" style="rounded=0;orthogonalLoop=1;jettySize=auto;html=1;exitX=1;exitY=0.5;exitDx=0;exitDy=0;entryX=0;entryY=0.5;entryDx=0;entryDy=0;dashed=1;" edge="1" parent="1" source="JRF7HpJoh09jdQa5sIdF-50" target="JRF7HpJoh09jdQa5sIdF-69">
          <mxGeometry relative="1" as="geometry" />
        </mxCell>
        <mxCell id="JRF7HpJoh09jdQa5sIdF-50" value="Cloner le dépôt de code" style="ellipse;whiteSpace=wrap;html=1;" vertex="1" parent="1">
          <mxGeometry x="320" y="-40" width="310" height="40" as="geometry" />
        </mxCell>
        <mxCell id="JRF7HpJoh09jdQa5sIdF-75" style="rounded=0;orthogonalLoop=1;jettySize=auto;html=1;exitX=1;exitY=0.5;exitDx=0;exitDy=0;entryX=0;entryY=0.5;entryDx=0;entryDy=0;dashed=1;" edge="1" parent="1" source="JRF7HpJoh09jdQa5sIdF-51" target="JRF7HpJoh09jdQa5sIdF-69">
          <mxGeometry relative="1" as="geometry" />
        </mxCell>
        <mxCell id="JRF7HpJoh09jdQa5sIdF-51" value="Commit et push du code" style="ellipse;whiteSpace=wrap;html=1;" vertex="1" parent="1">
          <mxGeometry x="320" y="30" width="310" height="40" as="geometry" />
        </mxCell>
        <mxCell id="JRF7HpJoh09jdQa5sIdF-76" style="rounded=0;orthogonalLoop=1;jettySize=auto;html=1;exitX=1;exitY=0.5;exitDx=0;exitDy=0;entryX=0;entryY=0.5;entryDx=0;entryDy=0;dashed=1;" edge="1" parent="1" source="JRF7HpJoh09jdQa5sIdF-52" target="JRF7HpJoh09jdQa5sIdF-69">
          <mxGeometry relative="1" as="geometry" />
        </mxCell>
        <mxCell id="JRF7HpJoh09jdQa5sIdF-52" value="Consulter le rapport de qualimétrie sur le&lt;br/&gt;serveur de qualimétrie" style="ellipse;whiteSpace=wrap;html=1;" vertex="1" parent="1">
          <mxGeometry x="325" y="90" width="330" height="40" as="geometry" />
        </mxCell>
        <mxCell id="JRF7HpJoh09jdQa5sIdF-79" style="rounded=0;orthogonalLoop=1;jettySize=auto;html=1;exitX=1;exitY=0.5;exitDx=0;exitDy=0;entryX=0;entryY=0.5;entryDx=0;entryDy=0;dashed=1;" edge="1" parent="1" source="JRF7HpJoh09jdQa5sIdF-53" target="JRF7HpJoh09jdQa5sIdF-69">
          <mxGeometry relative="1" as="geometry" />
        </mxCell>
        <mxCell id="JRF7HpJoh09jdQa5sIdF-53" value="Génération du paquet npm (package) pour l&#39;application" style="ellipse;whiteSpace=wrap;html=1;" vertex="1" parent="1">
          <mxGeometry x="320" y="150" width="340" height="40" as="geometry" />
        </mxCell>
        <mxCell id="JRF7HpJoh09jdQa5sIdF-80" style="rounded=0;orthogonalLoop=1;jettySize=auto;html=1;exitX=1;exitY=0.5;exitDx=0;exitDy=0;dashed=1;entryX=0;entryY=0.5;entryDx=0;entryDy=0;" edge="1" parent="1" source="JRF7HpJoh09jdQa5sIdF-54" target="JRF7HpJoh09jdQa5sIdF-69">
          <mxGeometry relative="1" as="geometry" />
        </mxCell>
        <mxCell id="JRF7HpJoh09jdQa5sIdF-54" value="Suivre les tâches lancées dans le serveur d&#39;intégration&amp;nbsp;" style="ellipse;whiteSpace=wrap;html=1;" vertex="1" parent="1">
          <mxGeometry x="320" y="220" width="340" height="40" as="geometry" />
        </mxCell>
        <mxCell id="JRF7HpJoh09jdQa5sIdF-81" style="rounded=0;orthogonalLoop=1;jettySize=auto;html=1;exitX=1;exitY=0.5;exitDx=0;exitDy=0;entryX=0;entryY=0.5;entryDx=0;entryDy=0;dashed=1;" edge="1" parent="1" source="JRF7HpJoh09jdQa5sIdF-55" target="JRF7HpJoh09jdQa5sIdF-69">
          <mxGeometry relative="1" as="geometry" />
        </mxCell>
        <mxCell id="JRF7HpJoh09jdQa5sIdF-55" value="Déployer les conteneurs dans&lt;br/&gt;l&#39;environnement de production&amp;nbsp;" style="ellipse;whiteSpace=wrap;html=1;" vertex="1" parent="1">
          <mxGeometry x="320" y="300" width="310" height="40" as="geometry" />
        </mxCell>
        <mxCell id="JRF7HpJoh09jdQa5sIdF-56" value="Accéder à l&#39;URL de l&#39;application déployée" style="ellipse;whiteSpace=wrap;html=1;" vertex="1" parent="1">
          <mxGeometry x="290" y="585" width="280" height="40" as="geometry" />
        </mxCell>
        <mxCell id="JRF7HpJoh09jdQa5sIdF-84" style="rounded=0;orthogonalLoop=1;jettySize=auto;html=1;exitX=1;exitY=0.5;exitDx=0;exitDy=0;entryX=0;entryY=0.5;entryDx=0;entryDy=0;dashed=1;" edge="1" parent="1" source="JRF7HpJoh09jdQa5sIdF-57" target="JRF7HpJoh09jdQa5sIdF-69">
          <mxGeometry relative="1" as="geometry" />
        </mxCell>
        <mxCell id="JRF7HpJoh09jdQa5sIdF-57" value="Surveiller l&#39;état du cluster&amp;nbsp;" style="ellipse;whiteSpace=wrap;html=1;" vertex="1" parent="1">
          <mxGeometry x="280" y="400" width="260" height="40" as="geometry" />
        </mxCell>
        <mxCell id="JRF7HpJoh09jdQa5sIdF-87" style="rounded=0;orthogonalLoop=1;jettySize=auto;html=1;exitX=1;exitY=0.5;exitDx=0;exitDy=0;entryX=-0.01;entryY=0.754;entryDx=0;entryDy=0;entryPerimeter=0;dashed=1;" edge="1" parent="1" source="JRF7HpJoh09jdQa5sIdF-58" target="JRF7HpJoh09jdQa5sIdF-69">
          <mxGeometry relative="1" as="geometry" />
        </mxCell>
        <mxCell id="JRF7HpJoh09jdQa5sIdF-58" value="Surveiller l&#39;état des conteneurs" style="ellipse;whiteSpace=wrap;html=1;" vertex="1" parent="1">
          <mxGeometry x="280" y="470" width="260" height="40" as="geometry" />
        </mxCell>
        <mxCell id="JRF7HpJoh09jdQa5sIdF-65" value="&amp;lt;&amp;lt;Include&amp;gt;&amp;gt;" style="text;html=1;strokeColor=none;fillColor=none;align=center;verticalAlign=middle;whiteSpace=wrap;rounded=0;" vertex="1" parent="1">
          <mxGeometry x="700" y="370" width="50" height="20" as="geometry" />
        </mxCell>
        <mxCell id="JRF7HpJoh09jdQa5sIdF-69" value="S&#39;authentifier&amp;nbsp;" style="ellipse;whiteSpace=wrap;html=1;" vertex="1" parent="1">
          <mxGeometry x="940" y="260" width="170" height="40" as="geometry" />
        </mxCell>
        <mxCell id="JRF7HpJoh09jdQa5sIdF-93" value="&amp;lt;&amp;lt;Include&amp;gt;&amp;gt;" style="text;html=1;strokeColor=none;fillColor=none;align=center;verticalAlign=middle;whiteSpace=wrap;rounded=0;" vertex="1" parent="1">
          <mxGeometry x="720" y="330" width="50" height="20" as="geometry" />
        </mxCell>
        <mxCell id="JRF7HpJoh09jdQa5sIdF-94" value="&amp;lt;&amp;lt;Include&amp;gt;&amp;gt;" style="text;html=1;strokeColor=none;fillColor=none;align=center;verticalAlign=middle;whiteSpace=wrap;rounded=0;" vertex="1" parent="1">
          <mxGeometry x="720" y="280" width="50" height="20" as="geometry" />
        </mxCell>
        <mxCell id="JRF7HpJoh09jdQa5sIdF-95" value="&amp;lt;&amp;lt;Include&amp;gt;&amp;gt;" style="text;html=1;strokeColor=none;fillColor=none;align=center;verticalAlign=middle;whiteSpace=wrap;rounded=0;rotation=15;" vertex="1" parent="1">
          <mxGeometry x="720" y="230" width="50" height="20" as="geometry" />
        </mxCell>
        <mxCell id="JRF7HpJoh09jdQa5sIdF-96" value="&amp;lt;&amp;lt;Include&amp;gt;&amp;gt;" style="text;html=1;strokeColor=none;fillColor=none;align=center;verticalAlign=middle;whiteSpace=wrap;rounded=0;rotation=30;" vertex="1" parent="1">
          <mxGeometry x="740" y="190" width="50" height="20" as="geometry" />
        </mxCell>
        <mxCell id="JRF7HpJoh09jdQa5sIdF-99" value="&amp;lt;&amp;lt;Include&amp;gt;&amp;gt;" style="text;html=1;strokeColor=none;fillColor=none;align=center;verticalAlign=middle;whiteSpace=wrap;rounded=0;rotation=30;" vertex="1" parent="1">
          <mxGeometry x="740" y="160" width="50" height="20" as="geometry" />
        </mxCell>
        <mxCell id="JRF7HpJoh09jdQa5sIdF-100" value="&amp;lt;&amp;lt;Include&amp;gt;&amp;gt;" style="text;html=1;strokeColor=none;fillColor=none;align=center;verticalAlign=middle;whiteSpace=wrap;rounded=0;rotation=35;" vertex="1" parent="1">
          <mxGeometry x="740" y="130" width="50" height="20" as="geometry" />
        </mxCell>
        <mxCell id="JRF7HpJoh09jdQa5sIdF-101" value="&amp;lt;&amp;lt;Include&amp;gt;&amp;gt;" style="text;html=1;strokeColor=none;fillColor=none;align=center;verticalAlign=middle;whiteSpace=wrap;rounded=0;rotation=30;" vertex="1" parent="1">
          <mxGeometry x="760" y="90" width="50" height="20" as="geometry" />
        </mxCell>
      </root>
    </mxGraphModel>
  </diagram>
</mxfile>
